<?xml version="1.0"?>
<!DOCTYPE svg PUBLIC "-//W3C//DTD SVG 1.1//EN" "http://www.w3.org/Graphics/SVG/1.1/DTD/svg11.dtd">
<!--Phoronix Test Suite v8.0.1 [ http://www.phoronix-test-suite.com/ ]-->
<svg xmlns="http://www.w3.org/2000/svg" xmlns:xlink="http://www.w3.org/1999/xlink" version="1.1" font-family="sans-serif, droid-sans, helvetica, verdana, tahoma" viewbox="0 0 342 365" width="342" height="365" preserveAspectRatio="xMinYMin meet"><rect x="0" y="0" width="342" height="365" fill="#FEFEFE" stroke="#757575" stroke-width="2"/><rect x="2" y="1" width="339" height="38" fill="#231f20" stroke="#757575" stroke-width="1"/><text x="171" y="19" font-size="17" fill="#FEFEFE" text-anchor="middle" font-weight="bold">2018-12-02-1608</text><a xlink:href="https://www.phoronix-test-suite.com/" xlink:show="new"><text x="4" y="36" font-size="8" fill="#FEFEFE" text-anchor="start" xlink:show="new" font-weight="bold">PHORONIX-TEST-SUITE.COM</text></a><a xlink:href="https://www.phoronix-test-suite.com/" xlink:show="new"><text x="338" y="36" font-size="8" fill="#FEFEFE" text-anchor="end" xlink:show="new" font-weight="bold">Phoronix Test Suite 8.0.1</text></a><g fill="#949494"><rect x="0" y="55" width="342" height="16"/><rect x="0" y="87" width="342" height="16"/><rect x="0" y="119" width="342" height="16"/><rect x="0" y="151" width="342" height="16"/></g><g fill="none" stroke-width="1" stroke="#005a00"/><g font-size="10" fill="#065695" text-anchor="middle" font-weight="bold"><a xlink:href="http://openbenchmarking.org/s/Intel Xeon @ 2.20GHz (4 Cores / 8 Threads)" xlink:show="new"><text x="171" y="52" xlink:title="Processor: Intel Xeon @ 2.20GHz (4 Cores / 8 Threads)">Intel Xeon @ 2.20GHz (4 Cores / 8 Threads)</text></a><a xlink:href="http://openbenchmarking.org/s/Google Compute Engine" xlink:show="new"><text x="171" y="68" xlink:title="Motherboard: Google Compute Engine">Google Compute Engine</text></a><a xlink:href="http://openbenchmarking.org/s/30720MB" xlink:show="new"><text x="171" y="84" xlink:title="Memory: 30720MB">30720MB</text></a><a xlink:href="http://openbenchmarking.org/s/1074GB PersistentDisk" xlink:show="new"><text x="171" y="100" xlink:title="Disk: 1074GB PersistentDisk">1074GB PersistentDisk</text></a><a xlink:href="http://openbenchmarking.org/s/Clear Linux OS 24870" xlink:show="new"><text x="171" y="116" xlink:title="OS: Clear Linux OS 24870">Clear Linux OS 24870</text></a><a xlink:href="http://openbenchmarking.org/s/4.15.0-1024-gcp (x86_64)" xlink:show="new"><text x="171" y="132" xlink:title="Kernel: 4.15.0-1024-gcp (x86_64)">4.15.0-1024-gcp (x86_64)</text></a><a xlink:href="http://openbenchmarking.org/s/GCC 8.2.0 + Clang 6.0.1 + LLVM 6.0.1" xlink:show="new"><text x="171" y="148" xlink:title="Compiler: GCC 8.2.0 + Clang 6.0.1 + LLVM 6.0.1">GCC 8.2.0 + Clang 6.0.1 + LLVM 6.0.1</text></a><a xlink:href="http://openbenchmarking.org/s/aufs" xlink:show="new"><text x="171" y="164" xlink:title="File-System: aufs">aufs</text></a><a xlink:href="http://openbenchmarking.org/s/KVM" xlink:show="new"><text x="171" y="180" xlink:title="System Layer: KVM">KVM</text></a></g><g font-size="7" fill="#065695" text-anchor="end"><text x="338" y="48">Processor</text><text x="338" y="64">Motherboard</text><text x="338" y="80">Memory</text><text x="338" y="96">Disk</text><text x="338" y="112">OS</text><text x="338" y="128">Kernel</text><text x="338" y="144">Compiler</text><text x="338" y="160">File-System</text><text x="338" y="176">System Layer</text></g><g stroke="#757575" stroke-width="1"><line x1="0" y1="39" x2="342" y2="39"/><line x1="0" y1="55" x2="342" y2="55"/><line x1="0" y1="71" x2="342" y2="71"/><line x1="0" y1="87" x2="342" y2="87"/><line x1="0" y1="103" x2="342" y2="103"/><line x1="0" y1="119" x2="342" y2="119"/><line x1="0" y1="135" x2="342" y2="135"/><line x1="0" y1="151" x2="342" y2="151"/><line x1="0" y1="167" x2="342" y2="167"/></g><rect x="1" y="183" width="340" height="182" fill="#231f20"/><text x="4" y="204" font-size="9" fill="#FEFEFE" text-anchor="start" xlink:title=""><tspan x="4" y="204" dx="0" dy="0">- --build=x86_64-generic-linux --disable-libmpx</tspan><tspan x="4" y="204" dx="5" dy="10"> --disable-libunwind-exceptions --disable-multiarch</tspan><tspan x="4" y="204" dx="5" dy="20"> --disable-vtable-verify --enable-__cxa_atexit</tspan><tspan x="4" y="204" dx="5" dy="30"> --enable-bootstrap --enable-clocale=gnu</tspan><tspan x="4" y="204" dx="5" dy="40"> --enable-gnu-indirect-function</tspan><tspan x="4" y="204" dx="5" dy="50"> --enable-languages=c,c++,fortran,go --enable-ld=default</tspan><tspan x="4" y="204" dx="5" dy="60"> --enable-libstdcxx-pch --enable-lto --enable-multilib</tspan><tspan x="4" y="204" dx="5" dy="70"> --enable-plugin --enable-shared --enable-threads=posix</tspan><tspan x="4" y="204" dx="5" dy="80"> --exec-prefix=/usr --includedir=/usr/include</tspan><tspan x="4" y="204" dx="5" dy="90"> --target=x86_64-generic-linux --with-arch=westmere</tspan><tspan x="4" y="204" dx="5" dy="100"> --with-glibc-version=2.19 --with-gnu-ld --with-isl</tspan><tspan x="4" y="204" dx="5" dy="110"> --with-ppl=yes --with-tune=haswell </tspan></text><text x="4" y="336" font-size="9" fill="#FEFEFE" text-anchor="start" xlink:title=""><tspan x="4" y="336" dx="0" dy="0">- KPTI + __user pointer sanitization + Full generic retpoline Protection </tspan></text></svg>
