<?xml version="1.0"?>
<!DOCTYPE svg PUBLIC "-//W3C//DTD SVG 1.1//EN" "http://www.w3.org/Graphics/SVG/1.1/DTD/svg11.dtd">
<!--Phoronix Test Suite v8.0.1 [ http://www.phoronix-test-suite.com/ ]-->
<svg xmlns="http://www.w3.org/2000/svg" xmlns:xlink="http://www.w3.org/1999/xlink" version="1.1" font-family="sans-serif, droid-sans, helvetica, verdana, tahoma" viewbox="0 0 282 121" width="282" height="121" preserveAspectRatio="xMinYMin meet"><rect x="0" y="0" width="282" height="121" fill="#FEFEFE" stroke="#757575" stroke-width="2"/><rect x="1" y="1" width="281" height="120" fill="#FEFEFE" stroke="#757575" stroke-width="1"/><path d="m74 22v9m-5-16v16m-5-28v28m-23-2h12.5c2.485281 0 4.5-2.014719 4.5-4.5s-2.014719-4.5-4.5-4.5h-8c-2.485281 0-4.5-2.014719-4.5-4.5s2.014719-4.5 4.5-4.5h12.5m-21 5h-11m11 13h-2c-4.970563 0-9-4.029437-9-9v-20m-24 40v-20c0-4.970563 4.0294373-9 9-9 4.970563 0 9 4.029437 9 9s-4.029437 9-9 9h-9" stroke="#000000" stroke-width="4" fill="none" transform="translate(46,28)"/><line x1="171" y1="65" x2="282" y2="65" stroke="#BABABA" stroke-width="80" stroke-dasharray="111,111"/><line x1="141" y1="73" x2="141" y2="105" stroke="#949494" stroke-width="282" stroke-dasharray="16,16"/><line x1="171" y1="65" x2="282" y2="65" stroke="#757575" stroke-width="80" stroke-dasharray="1,110"/><rect x="1" y="1" width="280" height="25" fill="#231f20"/><text x="5" y="19" font-size="17" fill="#FEFEFE" text-anchor="start">2018-12-02-0605</text><line x1="1" y1="25" x2="281" y2="25" stroke="#757575" stroke-width="1"/><g font-size="10" font-weight="bold" fill="#065695" text-anchor="end"><a xlink:href="https://openbenchmarking.org/test/pts/blogbench-1.0.1" xlink:show="new"><text x="169" y="85">blogbench: Test: Read</text></a><a xlink:href="https://openbenchmarking.org/test/pts/blogbench-1.0.1" xlink:show="new"><text x="169" y="101">blogbench: Test: Write</text></a></g><g font-size="10" fill="#065695" font-weight="bold" text-anchor="middle" dominant-baseline="text-before-edge"><text x="227" y="49">PersistentDisk</text></g><g fill="#BABABA"/><g text-anchor="middle" font-size="10" fill="#065695"><text x="227" y="86" xlink:title="STD Dev: 14.33%;  STD Error: 16492.16">281822</text><text x="227" y="102" xlink:title="STD Dev: 5.46%;  STD Error: 68.88">2187</text></g><line x1="141" y1="73" x2="141" y2="105" stroke="#949494" stroke-width="282" stroke-dasharray="1,15"/><rect x="0" y="105" width="282" height="16" fill="#231f20"/><a xlink:href="https://www.phoronix-test-suite.com/" xlink:show="new"><text x="280" y="118" font-size="10" fill="#FFFFFF" text-anchor="end" xlink:show="new">PHORONIX-TEST-SUITE.COM</text></a></svg>
