<?xml version="1.0"?>
<!DOCTYPE svg PUBLIC "-//W3C//DTD SVG 1.1//EN" "http://www.w3.org/Graphics/SVG/1.1/DTD/svg11.dtd">
<!--Phoronix Test Suite v8.2.0 [ http://www.phoronix-test-suite.com/ ]-->
<svg xmlns="http://www.w3.org/2000/svg" xmlns:xlink="http://www.w3.org/1999/xlink" version="1.1" font-family="sans-serif, droid-sans, helvetica, verdana, tahoma" viewbox="0 0 600 328" width="600" height="328" preserveAspectRatio="xMinYMin meet"><rect x="0" y="0" width="600" height="328" fill="#FEFEFE" stroke="#757575" stroke-width="2"/><g stroke="#757575" stroke-width="1"><line x1="10" y1="62" x2="10" y2="289"/><line x1="10" y1="288" x2="591" y2="288"/></g><a xlink:href="https://www.phoronix-test-suite.com/" xlink:show="new"><text x="590" y="57" font-size="8" fill="#065695" text-anchor="end" xlink:show="new">PHORONIX-TEST-SUITE.COM</text></a><rect x="0" y="0" width="600" height="46" fill="#231f20"/><text x="6" y="19" font-size="17" fill="#FEFEFE" text-anchor="start" xlink:show="new" font-weight="bold">Pjdfstest</text><path d="m74 22v9m-5-16v16m-5-28v28m-23-2h12.5c2.485281 0 4.5-2.014719 4.5-4.5s-2.014719-4.5-4.5-4.5h-8c-2.485281 0-4.5-2.014719-4.5-4.5s2.014719-4.5 4.5-4.5h12.5m-21 5h-11m11 13h-2c-4.970563 0-9-4.029437-9-9v-20m-24 40v-20c0-4.970563 4.0294373-9 9-9 4.970563 0 9 4.029437 9 9s-4.029437 9-9 9h-9" stroke="#ffffff" stroke-width="4" fill="none" transform="translate(513,4)"/><rect x="139" y="106" width="437" height="161" fill="#673ab7" stroke="#757575" stroke-width="1"/><text x="357.5" y="182.5" font-size="11" fill="#FFFFFF" text-anchor="middle" dominant-baseline="text-before-edge">PASS</text><line x1="139" y1="82" x2="139" y2="268" stroke="#949494" stroke-width="1"/><text x="357.5" y="89.5" font-size="11" fill="#231f20" text-anchor="middle" dominant-baseline="text-before-edge">Test Pass / Fail</text><line x1="24" y1="106" x2="576" y2="106" stroke="#949494" stroke-width="1"/><text x="137" y="185" font-size="11" fill="#231f20" text-anchor="end" dominant-baseline="middle">PersistentDisk</text><line x1="24" y1="82" x2="576" y2="82" stroke="#949494" stroke-width="1"/><line x1="24" y1="82" x2="24" y2="268" stroke="#949494" stroke-width="1"/><line x1="576" y1="82" x2="576" y2="268" stroke="#949494" stroke-width="1"/><line x1="24" y1="268" x2="576" y2="268" stroke="#949494" stroke-width="1"/><rect x="0" y="310" width="600" height="18" fill="#231f20"/><a xlink:href="https://www.phoronix-test-suite.com/" xlink:show="new"><text x="590" y="322" font-size="9" fill="#FEFEFE" text-anchor="end" xlink:show="new">Phoronix Test Suite 8.2.0</text></a></svg>
