<?xml version="1.0"?>
<!DOCTYPE svg PUBLIC "-//W3C//DTD SVG 1.1//EN" "http://www.w3.org/Graphics/SVG/1.1/DTD/svg11.dtd">
<!--Phoronix Test Suite v8.0.1 [ http://www.phoronix-test-suite.com/ ]-->
<svg xmlns="http://www.w3.org/2000/svg" xmlns:xlink="http://www.w3.org/1999/xlink" version="1.1" font-family="sans-serif, droid-sans, helvetica, verdana, tahoma" viewbox="0 0 383 137" width="383" height="137" preserveAspectRatio="xMinYMin meet"><rect x="0" y="0" width="383" height="137" fill="#FEFEFE" stroke="#757575" stroke-width="2"/><rect x="1" y="1" width="382" height="136" fill="#FEFEFE" stroke="#757575" stroke-width="1"/><path d="m74 22v9m-5-16v16m-5-28v28m-23-2h12.5c2.485281 0 4.5-2.014719 4.5-4.5s-2.014719-4.5-4.5-4.5h-8c-2.485281 0-4.5-2.014719-4.5-4.5s2.014719-4.5 4.5-4.5h12.5m-21 5h-11m11 13h-2c-4.970563 0-9-4.029437-9-9v-20m-24 40v-20c0-4.970563 4.0294373-9 9-9 4.970563 0 9 4.029437 9 9s-4.029437 9-9 9h-9" stroke="#000000" stroke-width="4" fill="none" transform="translate(111,28)"/><line x1="301" y1="73" x2="383" y2="73" stroke="#BABABA" stroke-width="96" stroke-dasharray="82,82"/><line x1="192" y1="73" x2="192" y2="121" stroke="#949494" stroke-width="383" stroke-dasharray="16,16"/><line x1="301" y1="73" x2="383" y2="73" stroke="#757575" stroke-width="96" stroke-dasharray="1,81"/><rect x="1" y="1" width="381" height="25" fill="#231f20"/><text x="5" y="19" font-size="17" fill="#FEFEFE" text-anchor="start">2018-12-02-1531</text><line x1="1" y1="25" x2="382" y2="25" stroke="#757575" stroke-width="1"/><g font-size="10" font-weight="bold" fill="#065695" text-anchor="end"><a xlink:href="https://openbenchmarking.org/test/pts/primesieve-1.5.0" xlink:show="new"><text x="299" y="85">primesieve: 1e12 Prime Number Generation</text></a><text x="299" y="101">Standard Error</text><text x="299" y="117">Standard Deviation</text></g><g font-size="10" fill="#065695" font-weight="bold" text-anchor="middle" dominant-baseline="text-before-edge"><text x="342" y="49">Intel Xeon</text></g><g fill="#BABABA"/><g text-anchor="middle" font-size="10" fill="#065695"><text x="342" y="86" xlink:title="STD Dev: 0.26%;  STD Error: 0.44">295.52</text><text x="342" y="102">0.44</text><text x="342" y="118">0.26%</text></g><line x1="192" y1="73" x2="192" y2="121" stroke="#949494" stroke-width="383" stroke-dasharray="1,15"/><rect x="0" y="121" width="383" height="16" fill="#231f20"/><a xlink:href="https://www.phoronix-test-suite.com/" xlink:show="new"><text x="381" y="134" font-size="10" fill="#FFFFFF" text-anchor="end" xlink:show="new">PHORONIX-TEST-SUITE.COM</text></a></svg>
