<?xml version="1.0"?>
<!DOCTYPE svg PUBLIC "-//W3C//DTD SVG 1.1//EN" "http://www.w3.org/Graphics/SVG/1.1/DTD/svg11.dtd">
<!--Phoronix Test Suite v8.0.1 [ http://www.phoronix-test-suite.com/ ]-->
<svg xmlns="http://www.w3.org/2000/svg" xmlns:xlink="http://www.w3.org/1999/xlink" version="1.1" font-family="sans-serif, droid-sans, helvetica, verdana, tahoma" viewbox="0 0 354 201" width="354" height="201" preserveAspectRatio="xMinYMin meet"><rect x="0" y="0" width="354" height="201" fill="#FEFEFE" stroke="#757575" stroke-width="2"/><rect x="1" y="1" width="353" height="200" fill="#FEFEFE" stroke="#757575" stroke-width="1"/><path d="m74 22v9m-5-16v16m-5-28v28m-23-2h12.5c2.485281 0 4.5-2.014719 4.5-4.5s-2.014719-4.5-4.5-4.5h-8c-2.485281 0-4.5-2.014719-4.5-4.5s2.014719-4.5 4.5-4.5h12.5m-21 5h-11m11 13h-2c-4.970563 0-9-4.029437-9-9v-20m-24 40v-20c0-4.970563 4.0294373-9 9-9 4.970563 0 9 4.029437 9 9s-4.029437 9-9 9h-9" stroke="#000000" stroke-width="4" fill="none" transform="translate(96,28)"/><line x1="272" y1="105" x2="354" y2="105" stroke="#BABABA" stroke-width="160" stroke-dasharray="82,82"/><line x1="177" y1="73" x2="177" y2="185" stroke="#949494" stroke-width="354" stroke-dasharray="16,16"/><line x1="272" y1="105" x2="354" y2="105" stroke="#757575" stroke-width="160" stroke-dasharray="1,81"/><rect x="1" y="1" width="352" height="25" fill="#231f20"/><text x="5" y="19" font-size="17" fill="#FEFEFE" text-anchor="start">2018-11-28-0634</text><line x1="1" y1="25" x2="353" y2="25" stroke="#757575" stroke-width="1"/><g font-size="10" font-weight="bold" fill="#065695" text-anchor="end"><a xlink:href="https://openbenchmarking.org/test/pts/glibc-bench-1.5.1" xlink:show="new"><text x="270" y="85">glibc-bench: Benchmark: cos</text></a><a xlink:href="https://openbenchmarking.org/test/pts/glibc-bench-1.5.1" xlink:show="new"><text x="270" y="101">glibc-bench: Benchmark: ffs</text></a><a xlink:href="https://openbenchmarking.org/test/pts/glibc-bench-1.5.1" xlink:show="new"><text x="270" y="117">glibc-bench: Benchmark: sin</text></a><a xlink:href="https://openbenchmarking.org/test/pts/glibc-bench-1.5.1" xlink:show="new"><text x="270" y="133">glibc-bench: Benchmark: sqrt</text></a><a xlink:href="https://openbenchmarking.org/test/pts/glibc-bench-1.5.1" xlink:show="new"><text x="270" y="149">glibc-bench: Benchmark: tanh</text></a><a xlink:href="https://openbenchmarking.org/test/pts/glibc-bench-1.5.1" xlink:show="new"><text x="270" y="165">glibc-bench: Benchmark: ffsll</text></a><a xlink:href="https://openbenchmarking.org/test/pts/glibc-bench-1.5.1" xlink:show="new"><text x="270" y="181">glibc-bench: Benchmark: pthread_once</text></a></g><g font-size="10" fill="#065695" font-weight="bold" text-anchor="middle" dominant-baseline="text-before-edge"><text x="313" y="49">Intel Xeon</text></g><g fill="#BABABA"/><g text-anchor="middle" font-size="10" fill="#065695"><text x="313" y="86" xlink:title="STD Dev: 1.09%;  STD Error: 1.61">256.05</text><text x="313" y="102" xlink:title="STD Dev: 26.86%;  STD Error: 0.75">6.86</text><text x="313" y="118" xlink:title="STD Dev: 1.27%;  STD Error: 1.86">253.46</text><text x="313" y="134" xlink:title="STD Dev: 0.19%;  STD Error: 0.02">13.77</text><text x="313" y="150" xlink:title="STD Dev: 2.31%;  STD Error: 0.51">37.82</text><text x="313" y="166" xlink:title="STD Dev: 0.08%">5.01</text><text x="313" y="182" xlink:title="STD Dev: 0.56%;  STD Error: 0.02">5.89</text></g><line x1="177" y1="73" x2="177" y2="185" stroke="#949494" stroke-width="354" stroke-dasharray="1,15"/><rect x="0" y="185" width="354" height="16" fill="#231f20"/><a xlink:href="https://www.phoronix-test-suite.com/" xlink:show="new"><text x="352" y="198" font-size="10" fill="#FFFFFF" text-anchor="end" xlink:show="new">PHORONIX-TEST-SUITE.COM</text></a></svg>
