<?xml version="1.0"?>
<!DOCTYPE svg PUBLIC "-//W3C//DTD SVG 1.1//EN" "http://www.w3.org/Graphics/SVG/1.1/DTD/svg11.dtd">
<!--Phoronix Test Suite v8.0.1 [ http://www.phoronix-test-suite.com/ ]-->
<svg xmlns="http://www.w3.org/2000/svg" xmlns:xlink="http://www.w3.org/1999/xlink" version="1.1" font-family="sans-serif, droid-sans, helvetica, verdana, tahoma" viewbox="0 0 527 169" width="527" height="169" preserveAspectRatio="xMinYMin meet"><rect x="0" y="0" width="527" height="169" fill="#FEFEFE" stroke="#757575" stroke-width="2"/><rect x="1" y="1" width="526" height="168" fill="#FEFEFE" stroke="#757575" stroke-width="1"/><path d="m74 22v9m-5-16v16m-5-28v28m-23-2h12.5c2.485281 0 4.5-2.014719 4.5-4.5s-2.014719-4.5-4.5-4.5h-8c-2.485281 0-4.5-2.014719-4.5-4.5s2.014719-4.5 4.5-4.5h12.5m-21 5h-11m11 13h-2c-4.970563 0-9-4.029437-9-9v-20m-24 40v-20c0-4.970563 4.0294373-9 9-9 4.970563 0 9 4.029437 9 9s-4.029437 9-9 9h-9" stroke="#000000" stroke-width="4" fill="none" transform="translate(85,28)"/><line x1="250" y1="89" x2="527" y2="89" stroke="#BABABA" stroke-width="128" stroke-dasharray="277,277"/><line x1="264" y1="73" x2="264" y2="153" stroke="#949494" stroke-width="527" stroke-dasharray="16,16"/><line x1="250" y1="89" x2="527" y2="89" stroke="#757575" stroke-width="128" stroke-dasharray="1,276"/><rect x="1" y="1" width="525" height="25" fill="#231f20"/><text x="5" y="19" font-size="17" fill="#FEFEFE" text-anchor="start">dockerosbench</text><line x1="1" y1="25" x2="526" y2="25" stroke="#757575" stroke-width="1"/><g font-size="10" font-weight="bold" fill="#065695" text-anchor="end"><a xlink:href="https://openbenchmarking.org/test/pts/osbench-1.0.1" xlink:show="new"><text x="248" y="85">osbench: Test: Create Files</text></a><a xlink:href="https://openbenchmarking.org/test/pts/osbench-1.0.1" xlink:show="new"><text x="248" y="101">osbench: Test: Create Threads</text></a><a xlink:href="https://openbenchmarking.org/test/pts/osbench-1.0.1" xlink:show="new"><text x="248" y="117">osbench: Test: Launch Programs</text></a><a xlink:href="https://openbenchmarking.org/test/pts/osbench-1.0.1" xlink:show="new"><text x="248" y="133">osbench: Test: Create Processes</text></a><a xlink:href="https://openbenchmarking.org/test/pts/osbench-1.0.1" xlink:show="new"><text x="248" y="149">osbench: Test: Memory Allocations</text></a></g><g font-size="10" fill="#065695" font-weight="bold" text-anchor="middle" dominant-baseline="text-before-edge"><text x="389" y="49">Intel Xeon -  - Google Compute Engine</text></g><g fill="#BABABA"/><g text-anchor="middle" font-size="10" fill="#065695"><text x="389" y="86" xlink:title="STD Dev: 2.26%;  STD Error: 0.71">54.57</text><text x="389" y="102" xlink:title="STD Dev: 3.32%;  STD Error: 0.80">41.82</text><text x="389" y="118" xlink:title="STD Dev: 1.95%;  STD Error: 1.44">128.12</text><text x="389" y="134" xlink:title="STD Dev: 8.99%;  STD Error: 2.34">63.83</text><text x="389" y="150" xlink:title="STD Dev: 0.65%;  STD Error: 0.43">113.62</text></g><line x1="264" y1="73" x2="264" y2="153" stroke="#949494" stroke-width="527" stroke-dasharray="1,15"/><rect x="0" y="153" width="527" height="16" fill="#231f20"/><a xlink:href="https://www.phoronix-test-suite.com/" xlink:show="new"><text x="525" y="166" font-size="10" fill="#FFFFFF" text-anchor="end" xlink:show="new">PHORONIX-TEST-SUITE.COM</text></a></svg>
